# xmcd
#
# Track frame offsets:
#	150
#	19385
#	33180
#	51813
#	72455
#	100938
#	128515
#	144603
#	157780
#	175193
#	191313
#	210093
#
# Disc length: 2963 seconds
#
# Revision: 1
# Processed by: cddbd v1.5PL3 Copyright (c) Steve Scherf et al.
# Submitted via: audiograbber 1.83.01
#
DISCID=960b910c
DTITLE=Hot Shot Blues Band - Blues for a living
DYEAR=1993
DGENRE=Blues
TTITLE0=Blues for a living
TTITLE1=Make me feel so good
TTITLE2=Do you have to work?
TTITLE3=How long will you treat me like a dog?
TTITLE4=Bayou Blue/Goin' to San Francisco
TTITLE5=Damn the Computer/Sweet little girl
TTITLE6=The Blues is allright with me
TTITLE7=Latin Blues
TTITLE8=Rhythm'n Blues
TTITLE9=Up and down
TTITLE10=Everybody needs somebody
TTITLE11=Rob's Boogie
EXTD=
EXTT0=
EXTT1=
EXTT2=
EXTT3=
EXTT4=
EXTT5=
EXTT6=
EXTT7=
EXTT8=
EXTT9=
EXTT10=
EXTT11=
PLAYORDER=
